HIERARCHY
ROOT hip
{
  OFFSET -8.32607 96.2518 6.50609
  CHANNELS 6 Xposition Yposition Zposition Zrotation Xrotation Yrotation
  JOINT abdomen
  {
    OFFSET 0 7.2397 0
    CHANNELS 6 Xposition Yposition Zposition Zrotation Xrotation Yrotation
    JOINT chest
    {
      OFFSET 0 16.546 0
      CHANNELS 6 Xposition Yposition Zposition Zrotation Xrotation Yrotation
      JOINT neck
      {
        OFFSET 0 34.2149 0
        CHANNELS 6 Xposition Yposition Zposition Zrotation Xrotation Yrotation
        JOINT head
        {
          OFFSET 0 6.2923 0
          CHANNELS 6 Xposition Yposition Zposition Zrotation Xrotation Yrotation
          End Site
          {
            OFFSET 0 21.2161 0
          }
        }
      }
      JOINT lCollar
      {
        OFFSET 4.0639 26.6115 -1.1234
        CHANNELS 6 Xposition Yposition Zposition Zrotation Xrotation Yrotation
        JOINT lShldr
        {
          OFFSET 14.1772 0 0
          CHANNELS 6 Xposition Yposition Zposition Zrotation Xrotation Yrotation
          JOINT lForeArm
          {
            OFFSET 26.1234 0 0
            CHANNELS 6 Xposition Yposition Zposition Zrotation Xrotation Yrotation
            JOINT lHand
            {
              OFFSET 27.7188 0 0
              CHANNELS 6 Xposition Yposition Zposition Zrotation Xrotation Yrotation
              JOINT lThumb1
              {
                OFFSET 2.2979 -0.4685 1.8313
                CHANNELS 6 Xposition Yposition Zposition Zrotation Xrotation Yrotation
                JOINT lThumb2
                {
                  OFFSET 5.2953 0 0
                  CHANNELS 6 Xposition Yposition Zposition Zrotation Xrotation Yrotation
                  JOINT lThumb3
                  {
                    OFFSET 3.0181 0 0
                    CHANNELS 6 Xposition Yposition Zposition Zrotation Xrotation Yrotation
                    End Site
                    {
                      OFFSET 2.6294 0 0
                    }
                  }
                }
              }
              JOINT lIndex1
              {
                OFFSET 9.3793 0.2991 2.5924
                CHANNELS 6 Xposition Yposition Zposition Zrotation Xrotation Yrotation
                JOINT lIndex2
                {
                  OFFSET 4.3461 0 0
                  CHANNELS 6 Xposition Yposition Zposition Zrotation Xrotation Yrotation
                  JOINT lIndex3
                  {
                    OFFSET 2.1666 0 0
                    CHANNELS 6 Xposition Yposition Zposition Zrotation Xrotation Yrotation
                    End Site
                    {
                      OFFSET 2.2048 0 0
                    }
                  }
                }
              }
              JOINT lMid1
              {
                OFFSET 9.4769 0.8376 0.2947
                CHANNELS 6 Xposition Yposition Zposition Zrotation Xrotation Yrotation
                JOINT lMid2
                {
                  OFFSET 4.772 0 0
                  CHANNELS 6 Xposition Yposition Zposition Zrotation Xrotation Yrotation
                  JOINT lMid3
                  {
                    OFFSET 2.8722 0 0
                    CHANNELS 6 Xposition Yposition Zposition Zrotation Xrotation Yrotation
                    End Site
                    {
                      OFFSET 2.0959 0 0
                    }
                  }
                }
              }
              JOINT lRing1
              {
                OFFSET 8.6586 1.0176 -1.7016
                CHANNELS 6 Xposition Yposition Zposition Zrotation Xrotation Yrotation
                JOINT lRing2
                {
                  OFFSET 4.5461 0 0
                  CHANNELS 6 Xposition Yposition Zposition Zrotation Xrotation Yrotation
                  JOINT lRing3
                  {
                    OFFSET 2.506 0 0
                    CHANNELS 6 Xposition Yposition Zposition Zrotation Xrotation Yrotation
                    End Site
                    {
                      OFFSET 2.2023 0 0
                    }
                  }
                }
              }
              JOINT lPinky1
              {
                OFFSET 7.6901 0.6618 -3.9096
                CHANNELS 6 Xposition Yposition Zposition Zrotation Xrotation Yrotation
                JOINT lPinky2
                {
                  OFFSET 3.2119 0 0
                  CHANNELS 6 Xposition Yposition Zposition Zrotation Xrotation Yrotation
                  JOINT lPinky3
                  {
                    OFFSET 1.924 0 0
                    CHANNELS 6 Xposition Yposition Zposition Zrotation Xrotation Yrotation
                    End Site
                    {
                      OFFSET 1.7829 0 0
                    }
                  }
                }
              }
            }
          }
        }
      }
      JOINT rCollar
      {
        OFFSET -4.0677 26.6109 -1.1234
        CHANNELS 6 Xposition Yposition Zposition Zrotation Xrotation Yrotation
        JOINT rShldr
        {
          OFFSET -14.1772 0 0
          CHANNELS 6 Xposition Yposition Zposition Zrotation Xrotation Yrotation
          JOINT rForeArm
          {
            OFFSET -26.1234 0 0
            CHANNELS 6 Xposition Yposition Zposition Zrotation Xrotation Yrotation
            JOINT rHand
            {
              OFFSET -27.7188 0 0
              CHANNELS 6 Xposition Yposition Zposition Zrotation Xrotation Yrotation
              JOINT rThumb1
              {
                OFFSET -2.2979 -0.4684 1.8313
                CHANNELS 6 Xposition Yposition Zposition Zrotation Xrotation Yrotation
                JOINT rThumb2
                {
                  OFFSET -5.2953 0 0
                  CHANNELS 6 Xposition Yposition Zposition Zrotation Xrotation Yrotation
                  JOINT rThumb3
                  {
                    OFFSET -3.0181 0 0
                    CHANNELS 6 Xposition Yposition Zposition Zrotation Xrotation Yrotation
                    End Site
                    {
                      OFFSET -2.6294 0 0
                    }
                  }
                }
              }
              JOINT rIndex1
              {
                OFFSET -9.3793 0.2991 2.5924
                CHANNELS 6 Xposition Yposition Zposition Zrotation Xrotation Yrotation
                JOINT rIndex2
                {
                  OFFSET -4.3461 0 0
                  CHANNELS 6 Xposition Yposition Zposition Zrotation Xrotation Yrotation
                  JOINT rIndex3
                  {
                    OFFSET -2.1666 0 0
                    CHANNELS 6 Xposition Yposition Zposition Zrotation Xrotation Yrotation
                    End Site
                    {
                      OFFSET -2.2048 0 0
                    }
                  }
                }
              }
              JOINT rMid1
              {
                OFFSET -9.4769 0.8376 0.2947
                CHANNELS 6 Xposition Yposition Zposition Zrotation Xrotation Yrotation
                JOINT rMid2
                {
                  OFFSET -4.772 0 0
                  CHANNELS 6 Xposition Yposition Zposition Zrotation Xrotation Yrotation
                  JOINT rMid3
                  {
                    OFFSET -2.8722 0 0
                    CHANNELS 6 Xposition Yposition Zposition Zrotation Xrotation Yrotation
                    End Site
                    {
                      OFFSET -2.0959 0 0
                    }
                  }
                }
              }
              JOINT rRing1
              {
                OFFSET -8.6586 1.0176 -1.7016
                CHANNELS 6 Xposition Yposition Zposition Zrotation Xrotation Yrotation
                JOINT rRing2
                {
                  OFFSET -4.5461 0 0
                  CHANNELS 6 Xposition Yposition Zposition Zrotation Xrotation Yrotation
                  JOINT rRing3
                  {
                    OFFSET -2.506 0 0
                    CHANNELS 6 Xposition Yposition Zposition Zrotation Xrotation Yrotation
                    End Site
                    {
                      OFFSET -2.2023 0 0
                    }
                  }
                }
              }
              JOINT rPinky1
              {
                OFFSET -7.6901 0.6618 -3.9096
                CHANNELS 6 Xposition Yposition Zposition Zrotation Xrotation Yrotation
                JOINT rPinky2
                {
                  OFFSET -3.2119 0 0
                  CHANNELS 6 Xposition Yposition Zposition Zrotation Xrotation Yrotation
                  JOINT rPinky3
                  {
                    OFFSET -1.924 0 0
                    CHANNELS 6 Xposition Yposition Zposition Zrotation Xrotation Yrotation
                    End Site
                    {
                      OFFSET -1.7829 0 0
                    }
                  }
                }
              }
            }
          }
        }
      }
    }
  }
  JOINT lThigh
  {
    OFFSET 8.7379 -0.0029 0.0005
    CHANNELS 6 Xposition Yposition Zposition Zrotation Xrotation Yrotation
    JOINT lShin
    {
      OFFSET 0 -46.6676 0
      CHANNELS 6 Xposition Yposition Zposition Zrotation Xrotation Yrotation
      JOINT lFoot
      {
        OFFSET 0 -40.1476 0
        CHANNELS 6 Xposition Yposition Zposition Zrotation Xrotation Yrotation
        JOINT lToes
        {
          OFFSET 0 -8.8846 14.2294
          CHANNELS 6 Xposition Yposition Zposition Zrotation Xrotation Yrotation
          End Site
          {
            OFFSET 0 0 6.296
          }
        }
      }
    }
  }
  JOINT rThigh
  {
    OFFSET -8.7379 0.0029 -0.0005
    CHANNELS 6 Xposition Yposition Zposition Zrotation Xrotation Yrotation
    JOINT rShin
    {
      OFFSET 0 -46.6676 0
      CHANNELS 6 Xposition Yposition Zposition Zrotation Xrotation Yrotation
      JOINT rFoot
      {
        OFFSET 0 -40.1476 0
        CHANNELS 6 Xposition Yposition Zposition Zrotation Xrotation Yrotation
        JOINT rToes
        {
          OFFSET 0 -8.8846 14.2294
          CHANNELS 6 Xposition Yposition Zposition Zrotation Xrotation Yrotation
          End Site
          {
            OFFSET 0 0 6.296
          }
        }
      }
    }
  }
}
MOTION
Frames:	4
Frame Time:	0.0333333
-5.68503 86.7842 -6.57018 2.10412 -6.14104 -34.5748 1.33227e-15 7.2397 0 -0.203622 1.15617 0.92874 0 16.546 -8.88178e-16 1.32553 4.17889 1.53497 8.88178e-16 34.2149 1.77636e-15 1.18254 44.5246 -0.183837 -1.77636e-15 6.2923 -1.42109e-14 -6.19393 -35.8048 -0.963192 4.0639 26.6115 -1.1234 -3.59756 -4.00634 5.45383 14.1772 5.68434e-14 -4.44089e-16 -45.2328 48.1237 -16.8324 26.1234 0 -7.10543e-15 -0.75663 0.836528 -90.2529 27.7188 0 0 20.9481 -39.1281 31.6802 2.2979 -0.4685 1.8313 76.4798 60.7754 -98.6822 5.2953 0 0 -33.2007 -8.24944 0.679812 3.0181 -1.42109e-14 3.55271e-15 12.4883 -0.000109421 -5.86965e-06 9.3793 0.2991 2.5924 -31.7813 -3.16056 15.1017 4.3461 0 1.42109e-14 -29.4123 -0.591319 3.44673 2.1666 0 1.42109e-14 -2.1684 -1.36217e-05 -1.63111e-06 9.4769 0.8376 0.2947 -48.0387 -12.3958 16.8119 4.772 1.42109e-14 0 -21.3994 -0.198537 1.46261 2.8722 0 0 3.9574 0.0710973 0.3994 8.6586 1.0176 -1.7016 -45.6949 -12.2351 11.6969 4.5461 0 0 -35.831 0.545811 -1.6744 2.506 0 1.42109e-14 6.7605 -9.46994e-06 -9.94322e-05 7.6901 0.6618 -3.9096 -46.6425 -11.7117 6.49273 3.2119 0 0 -47.7308 -2.18016 4.93902 1.924 -1.42109e-14 0 4.4131 -5.95467e-06 -3.69154e-06 -4.0677 26.6109 -1.1234 1.5466 -4.14103 -2.40809 -14.1772 2.84217e-14 -1.77636e-15 39.9609 49.8315 8.16288 -26.1234 0 0 0.823657 0.648157 85.2856 -27.7188 0 7.10543e-15 7.02625 -1.17782 -15.5351 -2.2979 -0.4684 1.8313 -41.3781 57.3022 59.2288 -5.2953 -1.42109e-14 0 54.2385 -4.4837 -7.75114 -3.0181 0 0 -12.4883 -9.51409e-05 0.000105278 -9.3793 0.2991 2.5924 -2.62298 -8.41114 -1.56205 -4.3461 0 0 12.5488 0.0864925 -1.83287 -2.1666 -7.10543e-15 7.10543e-15 2.1682 1.53065e-06 6.59416e-06 -9.4769 0.8376 0.2947 51.2958 -7.13313 -3.90377 -4.772 0 0 78.949 -4.09649 -5.07012 -2.8722 0 0 -3.95751 0.0709846 -0.399396 -8.6586 1.0176 -1.7016 54.5678 2.26224 -3.85329 -4.5461 -3.55271e-15 -7.10543e-15 64.8099 2.34338 3.91177 -2.506 0 2.13163e-14 -6.7605 -1.01325e-05 4.95487e-06 -7.6901 0.6618 -3.9096 54.5912 -5.63342 1.66826 -3.2119 7.10543e-15 0 67.0762 -2.16237 -3.22591 -1.924 -1.42109e-14 0 -4.413 -4.01223e-06 1.12213e-06 8.7379 -0.0029 0.0005 16.6492 -20.9074 11.848 0 -46.6676 0 3.20571 33.4771 -1.02161 -3.55271e-15 -40.1476 0 -18.6074 -4.13215 19.6825 -3.55271e-15 -8.8846 14.2294 0.0001 -3.10601e-18 4.96962e-17 -8.7379 0.0029 -0.0005 -21.353 -16.6516 -22.6786 -3.55271e-15 -46.6676 7.10543e-15 -8.22898 57.8041 4.23326 -3.55271e-15 -40.1476 -4.44089e-16 9.78296 -31.0273 -2.90697 -3.55271e-15 -8.8846 14.2294 -7.95139e-16 1.98785e-16 -6.36111e-15 
-5.07652 87.073 -6.00352 2.0049 -5.96169 -34.3928 -4.44089e-16 7.2397 0 -0.14062 1.10033 1.08843 0 16.546 0 1.37196 4.06952 1.85277 -1.77636e-15 34.2149 0 0.989098 44.6105 -0.24087 -3.55271e-15 6.2923 1.42109e-14 -5.86139 -35.7339 -1.45288 4.0639 26.6115 -1.1234 -4.40892 -3.99756 4.5455 14.1772 2.84217e-14 8.88178e-16 -43.8342 45.9718 -18.5347 26.1234 0 -7.10543e-15 -0.738816 0.861536 -90.6707 27.7188 0 -1.42109e-14 24.1917 -39.507 34.6338 2.2979 -0.4685 1.8313 76.9225 61.3211 -99.0815 5.2953 2.84217e-14 3.55271e-15 -33.2776 -8.26028 0.654699 3.0181 -1.42109e-14 7.10543e-15 12.4883 -0.000109421 -5.86965e-06 9.3793 0.2991 2.5924 -31.8208 -2.561 16.1201 4.3461 -3.55271e-15 -1.42109e-14 -29.4137 -0.591588 3.44378 2.1666 1.42109e-14 0 -2.1684 -1.36217e-05 -1.63111e-06 9.4769 0.8376 0.2947 -48.1214 -12.3478 17.999 4.772 1.42109e-14 -1.42109e-14 -21.4623 -0.198795 1.46325 2.8722 1.42109e-14 -1.42109e-14 3.9574 0.0710973 0.3994 8.6586 1.0176 -1.7016 -45.2942 -12.133 13.0439 4.5461 1.42109e-14 1.42109e-14 -35.742 0.545847 -1.6735 2.506 0 0 6.7605 -9.46994e-06 -9.94322e-05 7.6901 0.6618 -3.9096 -46.3297 -11.6812 6.73896 3.2119 -7.10543e-15 1.42109e-14 -47.5671 -2.16591 4.92608 1.924 1.42109e-14 0 4.4131 -5.95467e-06 -3.69154e-06 -4.0677 26.6109 -1.1234 2.47029 -4.14453 -0.499268 -14.1772 -5.68434e-14 3.55271e-15 38.7515 47.7249 11.9701 -26.1234 -1.42109e-14 0 0.843194 0.59876 87.9573 -27.7188 0 0 4.9066 -2.79391 -14.7581 -2.2979 -0.4684 1.8313 -41.7656 57.7744 59.085 -5.2953 1.42109e-14 0 53.2898 -4.32287 -7.63305 -3.0181 0 -7.10543e-15 -12.4883 -9.51409e-05 0.000105278 -9.3793 0.2991 2.5924 -4.00838 -8.34851 -2.48141 -4.3461 0 -1.42109e-14 12.9989 0.072194 -1.89851 -2.1666 0 1.42109e-14 2.1682 1.53065e-06 6.59416e-06 -9.4769 0.8376 0.2947 51.3523 -7.1385 -3.54124 -4.772 1.77636e-15 0 79.0421 -4.10472 -5.07159 -2.8722 0 0 -3.95751 0.0709846 -0.399396 -8.6586 1.0176 -1.7016 54.9209 2.25192 -3.15391 -4.5461 5.32907e-15 -7.10543e-15 63.6727 2.266 3.87454 -2.506 -1.42109e-14 1.42109e-14 -6.7605 -1.01325e-05 4.95487e-06 -7.6901 0.6618 -3.9096 55.2765 -5.6526 2.3788 -3.2119 3.55271e-15 0 66.6218 -2.14737 -3.2224 -1.924 2.84217e-14 0 -4.413 -4.01223e-06 1.12213e-06 8.7379 -0.0029 0.0005 16.3865 -21.0554 12.4689 0 -46.6676 -7.10543e-15 3.24084 33.7198 -1.00775 -3.55271e-15 -40.1476 -3.55271e-15 -17.8666 -4.27532 18.9635 3.55271e-15 -8.8846 14.2294 0.0001 -9.31803e-18 9.93923e-17 -8.7379 0.0029 -0.0005 -21.6008 -16.0401 -22.7697 0 -46.6676 0 -7.83512 56.5447 3.94473 0 -40.1476 -2.44249e-15 10.1393 -30.2944 -2.81729 -3.55271e-15 -8.8846 14.2294 -7.95139e-16 3.97569e-16 -6.36111e-15 
-4.57785 87.3789 -5.50501 1.81355 -5.76446 -34.2076 4.44089e-16 7.2397 0 -0.0471967 1.03114 1.23394 0 16.546 0 1.47043 3.93374 2.13911 1.77636e-15 34.2149 -1.77636e-15 0.732378 44.7386 -0.247092 -8.88178e-16 6.2923 0 -5.57554 -35.5535 -1.82148 4.0639 26.6115 -1.1234 -5.14864 -3.97856 3.62917 14.1772 0 0 -42.8681 43.6205 -19.8824 26.1234 0 0 -0.720627 0.894605 -91.0202 27.7188 -1.42109e-14 -1.42109e-14 27.6168 -39.1839 37.6833 2.2979 -0.4685 1.8313 77.634 62.1021 -99.6899 5.2953 0 0 -33.5522 -8.30951 0.607702 3.0181 0 0 12.4883 -0.000109421 -5.86965e-06 9.3793 0.2991 2.5924 -32.3974 -1.67886 17.5408 4.3461 -7.10543e-15 0 -29.3776 -0.591547 3.43942 2.1666 -1.42109e-14 0 -2.1684 -1.36217e-05 -1.63111e-06 9.4769 0.8376 0.2947 -48.5218 -12.2558 19.5801 4.772 7.10543e-15 -1.42109e-14 -21.4941 -0.198805 1.46369 2.8722 0 -1.42109e-14 3.9574 0.0710973 0.3994 8.6586 1.0176 -1.7016 -44.849 -12.036 14.4009 4.5461 0 -1.42109e-14 -35.5924 0.546024 -1.67278 2.506 -7.10543e-15 0 6.7605 -9.46994e-06 -9.94322e-05 7.6901 0.6618 -3.9096 -45.771 -11.6596 7.13748 3.2119 7.10543e-15 1.42109e-14 -47.4176 -2.15291 4.91419 1.924 1.42109e-14 1.42109e-14 4.4131 -5.95467e-06 -3.69154e-06 -4.0677 26.6109 -1.1234 3.15634 -4.14007 1.4669 -14.1772 0 0 37.9263 45.8632 15.8108 -26.1234 0 -7.10543e-15 0.869052 0.915391 90.3893 -27.7188 0 -2.84217e-14 1.99285 -4.83379 -13.9197 -2.2979 -0.4684 1.8313 -42.2566 58.4151 58.8518 -5.2953 0 -3.55271e-15 52.0953 -4.12444 -7.48677 -3.0181 0 0 -12.4883 -9.51409e-05 0.000105278 -9.3793 0.2991 2.5924 -6.1662 -8.24294 -4.11873 -4.3461 0 -1.42109e-14 13.9831 0.0398137 -2.03833 -2.1666 -7.10543e-15 1.42109e-14 2.1682 1.53065e-06 6.59416e-06 -9.4769 0.8376 0.2947 52.0872 -7.16214 -2.5835 -4.772 1.77636e-15 0 78.8168 -4.08479 -5.06797 -2.8722 0 0 -3.95751 0.0709846 -0.399396 -8.6586 1.0176 -1.7016 55.3895 2.23506 -1.96262 -4.5461 0 0 61.8491 2.14371 3.81124 -2.506 -1.42109e-14 -1.42109e-14 -6.7605 -1.01325e-05 4.95487e-06 -7.6901 0.6618 -3.9096 55.9248 -5.67149 3.5282 -3.2119 0 1.42109e-14 65.7756 -2.11226 -3.20881 -1.924 0 0 -4.413 -4.01223e-06 1.12213e-06 8.7379 -0.0029 0.0005 16.1773 -21.0602 12.7218 -3.55271e-15 -46.6676 7.10543e-15 3.24094 33.7156 -0.984252 -7.10543e-15 -40.1476 -3.55271e-15 -17.2776 -4.37602 18.5787 0 -8.8846 14.2294 0.0001 0 1.98785e-16 -8.7379 0.0029 -0.0005 -21.6186 -15.3414 -22.7988 3.55271e-15 -46.6676 7.10543e-15 -7.4377 55.1881 3.65741 -3.55271e-15 -40.1476 -6.66134e-16 10.4162 -29.5939 -2.82093 0 -8.8846 14.2294 7.95139e-16 -5.96354e-16 -0 
-4.17153 87.6869 -5.07286 1.60987 -5.58551 -34.0243 0 7.2397 1.77636e-15 0.0454854 0.959895 1.38222 0 16.546 8.88178e-16 1.5729 3.79424 2.43121 1.33227e-15 34.2149 1.77636e-15 0.448531 44.9154 -0.22272 -2.66454e-15 6.2923 0 -5.32736 -35.2781 -2.11261 4.0639 26.6115 -1.1234 -5.88607 -3.94751 2.68351 14.1772 0 0 -42.2352 41.0061 -20.9464 26.1234 1.42109e-14 -1.42109e-14 -0.703668 0.925148 -91.1801 27.7188 0 0 31.1384 -38.3691 40.6022 2.2979 -0.4685 1.8313 78.2189 62.6971 -100.148 5.2953 0 0 -33.6576 -8.32409 0.573761 3.0181 0 0 12.4883 -0.000109421 -5.86965e-06 9.3793 0.2991 2.5924 -32.928 -0.851371 18.8905 4.3461 0 -1.42109e-14 -29.3502 -0.591115 3.43582 2.1666 0 1.42109e-14 -2.1684 -1.36217e-05 -1.63111e-06 9.4769 0.8376 0.2947 -49.0242 -12.1606 20.8861 4.772 0 -1.42109e-14 -21.4871 -0.198644 1.464 2.8722 1.42109e-14 0 3.9574 0.0710973 0.3994 8.6586 1.0176 -1.7016 -45.0256 -11.8633 15.416 4.5461 7.10543e-15 0 -35.6616 0.546455 -1.67246 2.506 1.42109e-14 0 6.7605 -9.46994e-06 -9.94322e-05 7.6901 0.6618 -3.9096 -45.712 -11.754 7.68386 3.2119 0 -1.42109e-14 -47.278 -2.1408 4.90309 1.924 7.10543e-15 1.42109e-14 4.4131 -5.95467e-06 -3.69154e-06 -4.0677 26.6109 -1.1234 3.6103 -4.13091 3.40127 -14.1772 0 0 37.3265 44.0536 19.7031 -26.1234 1.42109e-14 -7.10543e-15 0.896825 0.862059 92.1348 -27.7188 1.42109e-14 0 -0.76758 -7.19042 -13.6148 -2.2979 -0.4684 1.8313 -42.6391 59.2029 58.5207 -5.2953 0 0 50.7593 -3.90341 -7.3268 -3.0181 0 -7.10543e-15 -12.4883 -9.51409e-05 0.000105278 -9.3793 0.2991 2.5924 -9.30213 -8.06785 -6.85496 -4.3461 0 -1.42109e-14 16.2982 -0.0449926 -2.36025 -2.1666 0 0 2.1682 1.53065e-06 6.59416e-06 -9.4769 0.8376 0.2947 53.352 -7.19568 -1.32371 -4.772 0 0 78.5128 -4.05793 -5.06397 -2.8722 0 0 -3.95751 0.0709846 -0.399396 -8.6586 1.0176 -1.7016 56.2567 2.20886 -0.606373 -4.5461 0 1.42109e-14 60.73 2.06952 3.77075 -2.506 0 1.42109e-14 -6.7605 -1.01325e-05 4.95487e-06 -7.6901 0.6618 -3.9096 57.2632 -5.69872 5.06801 -3.2119 0 -1.42109e-14 66.0533 -2.14253 -3.22428 -1.924 7.10543e-15 0 -4.413 -4.01223e-06 1.12213e-06 8.7379 -0.0029 0.0005 15.9685 -20.9547 12.7404 3.55271e-15 -46.6676 7.10543e-15 3.21107 33.5013 -0.952459 0 -40.1476 0 -16.7981 -4.40773 18.4265 -7.10543e-15 -8.8846 14.2294 0.0001 -3.10601e-18 9.93923e-17 -8.7379 0.0029 -0.0005 -21.5357 -14.6148 -22.7932 -3.55271e-15 -46.6676 -7.10543e-15 -7.06153 53.818 3.38975 -3.55271e-15 -40.1476 -3.10862e-15 10.655 -28.9291 -2.84484 -3.55271e-15 -8.8846 14.2294 1.59028e-15 7.95139e-16 -6.36111e-15 
